<svg xmlns="http://www.w3.org/2000/svg" width="760" height="470" viewBox="0 0 760 470"><defs><pattern id="water" width="24" height="10" patternUnits="userSpaceOnUse"><path d="M0 5q6-5 12 0t12 0" fill="none" stroke="#64a9bd" stroke-width="2"/></pattern></defs><rect width="760" height="470" rx="18" fill="#fff"/><text x="380" y="42" text-anchor="middle" font-family="Arial" font-size="24" font-weight="700" fill="#20232a">Internal tank dimensions</text><path d="M185 145l95-65h330l-95 65z" fill="#f7f8fa" stroke="#20232a" stroke-width="4"/><path d="M185 145h330v245H185zM515 145l95-65v245l-95 65z" fill="#fff" stroke="#20232a" stroke-width="4"/><path d="M187 205h326v183H187z" fill="#dceff5"/><path d="M518 205l89-61v179l-89 64z" fill="#c8e5ed"/><path d="M185 205h330l95-65" fill="none" stroke="#327f96" stroke-width="4"/><rect x="187" y="205" width="326" height="183" fill="url(#water)" opacity=".55"/><g font-family="Arial" fill="#20232a" font-size="22"><text x="420" y="70" text-anchor="middle">length = 2.5 m</text><text x="626" y="242">height = 1.2 m</text><text x="390" y="425" text-anchor="middle">width = 1.6 m</text><text x="350" y="286" text-anchor="middle" fill="#205d70" font-weight="700">water depth = 0.9 m</text></g></svg>
