<svg xmlns="http://www.w3.org/2000/svg" width="100" height="100" viewBox="0 0 100 100">
  <defs>
    <radialGradient id="b" cx="42%" cy="34%" r="72%">
      <stop offset="0%" stop-color="#ff8880"/><stop offset="72%" stop-color="#ff6f66"/><stop offset="100%" stop-color="#f25c53"/>
    </radialGradient>
  </defs>
  <path d="M50 13V5M50 7l-6-6M50 7l6-6" stroke="#0b9e9a" stroke-width="4" fill="none" stroke-linecap="round"/>
  <ellipse cx="39" cy="91" rx="8" ry="5" fill="#e94d3e"/><ellipse cx="61" cy="91" rx="8" ry="5" fill="#e94d3e"/>
  <circle cx="50" cy="49" r="41" fill="url(#b)"/>
  <circle cx="50" cy="49" r="34.5" fill="none" stroke="#ffaaa4" stroke-width="2.2" opacity=".75"/>
  <circle cx="72" cy="27" r="9" fill="#ff8f88"/><circle cx="75" cy="24" r="3.2" fill="#ffb0aa"/>
  <circle cx="29" cy="62" r="5.5" fill="#e95d55"/><circle cx="71" cy="62" r="5.5" fill="#e95d55"/>
  <ellipse cx="40" cy="49" rx="8" ry="10" fill="#fff"/><ellipse cx="60" cy="49" rx="8" ry="10" fill="#fff"/>
  <circle cx="42" cy="51" r="4.5" fill="#17162c"/><circle cx="62" cy="51" r="4.5" fill="#17162c"/>
  <circle cx="43.5" cy="48.5" r="1.6" fill="#fff"/><circle cx="63.5" cy="48.5" r="1.6" fill="#fff"/>
  <path d="M42 65q8 8 16 0" stroke="#17162c" stroke-width="3.4" fill="none" stroke-linecap="round"/>
</svg>
